<svg width="101" height="120" viewBox="0 0 101 120" fill="none" xmlns="http://www.w3.org/2000/svg">
<path d="M0 82.1053H101V116.842H97.8438V120H3.15625V116.842H0V82.1053Z" fill="white"/>
<path d="M93.4759 92.5465V91.0898H92.02L92.02 97.8947H89.1081L89.1081 85.2632H92.02V86.7198H93.4759V88.1765H94.9318V85.2632H97.8436L97.8436 97.8947H94.9318L94.9318 92.5465H93.4759Z" fill="#231F52"/>
<path d="M80.3692 96.4381V97.8948H77.4573V85.2632H80.3692L80.3692 92.0681H81.8251V90.6114H83.281V92.0681H84.7369V85.2632H87.6487V97.8948H84.7369V96.4381H83.281V94.9814H81.8251V96.4381H80.3692Z" fill="#231F52"/>
<path d="M70.1798 92.5465L70.1797 97.8948H67.2679L67.268 86.7198H68.7239V85.2632H74.5475V86.7198H76.0034L76.0033 97.8948H73.0915L73.0916 92.5465H70.1798ZM70.1798 89.6331H73.0916V88.1765H70.1798V89.6331Z" fill="#231F52"/>
<path d="M62.902 96.4381V97.8947H57.0784L57.0784 85.2632H62.902V86.7198H64.3579V88.1765H65.8138L65.8138 94.9814H64.3579V96.4381H62.902ZM61.4461 89.6332V88.1765H59.9902L59.9902 94.9814H61.4461V93.5248H62.902L62.902 89.6332H61.4461Z" fill="#231F52"/>
<path d="M45.3699 97.8948V96.4381H43.914V85.2632H46.8258V94.9814H52.6494V97.8948H45.3699Z" fill="#231F52"/>
<path d="M35.1805 97.8948V96.4381H33.7246V86.7198H35.1805V85.2632H42.4601V88.1765H36.6364V90.2446H39.5482V93.1579H36.6364V94.9814H42.4601V97.8948H35.1805Z" fill="#231F52"/>
<path d="M23.5353 89.6331V85.2632H26.4471V88.1765H29.3589V85.2632H32.2707V89.6331H30.8148L30.8148 93.5248H32.2707V97.8948H29.3589V94.9814H26.4471V97.8948H23.5353V93.5248H24.9912L24.9912 89.6331H23.5353Z" fill="#231F52"/>
<path d="M13.3457 88.1765V85.2632H22.0811V88.1765H19.1693L19.1693 94.9814H22.0811V97.8948H13.3457V94.9814H16.2575L16.2575 88.1765H13.3457Z" fill="#231F52"/>
<path d="M6.06807 92.5465L6.06807 97.8947H3.15626L3.15626 85.2632H10.4358V86.7198H12.0332V91.0898H10.4358V92.5465H6.06807ZM6.06807 88.1765V89.6331H9.07422V88.1765H6.06807Z" fill="#231F52"/>
<path d="M80.0028 110.938V101.053H82.7478V109.565H85.4929V101.053H88.2379V110.938H86.8654V112.311H85.4929V113.684H82.7478V112.311H81.3753V110.938H80.0028Z" fill="#231F52"/>
<path d="M70.3969 103.799V101.053H78.632V103.799H75.887V110.938H78.632V113.684H70.3969V110.938H73.142V103.799H70.3969Z" fill="#231F52"/>
<path d="M60.7913 103.799V101.053H69.0264V103.799H66.2813V113.684H63.5363V103.799H60.7913Z" fill="#231F52"/>
<path d="M51.1854 112.311L51.1854 102.426H52.5579V101.053H59.4205V103.799H53.9304L53.9304 110.938H59.4205V113.684H52.5579V112.311H51.1854Z" fill="#231F52"/>
<path d="M42.952 113.684V112.311H41.5795V102.426H42.952V101.053H49.8146V103.799H44.3246V105.967H47.0696V108.713H44.3246V110.938H49.8146V113.684H42.952Z" fill="#231F52"/>
<path d="M90.9812 113.684V112.311H89.6086V102.426H90.9812V101.053H97.8437V103.799H92.3537V105.967H95.0987V108.713H92.3537V110.938H97.8437V113.684H90.9812Z" fill="#231F52"/>
<path d="M33.3462 113.684V112.311H31.9737V101.053H34.7187L34.7187 110.938H40.2088V113.684H33.3462Z" fill="#231F52"/>
<path d="M23.7405 113.684V112.311H22.368L22.368 101.053H25.113V110.938H30.6031V113.684H23.7405Z" fill="#231F52"/>
<path d="M12.7621 112.311V102.426H14.1346V101.053H19.6247V102.426H20.9972V112.311H19.6247V113.684H14.1346V112.311H12.7621ZM15.5072 103.799V110.938H18.2522V103.799H15.5072Z" fill="#231F52"/>
<path d="M3.15626 112.311L3.15626 102.426H4.52878V101.053H11.3914V103.799H5.90129V110.938H11.3914V113.684H4.52878V112.311H3.15626Z" fill="#231F52"/>
<path fill-rule="evenodd" clip-rule="evenodd" d="M22.0938 18.9474H25.25V22.1053H22.0938V25.2632H25.25V28.4211H28.4063V25.2632H31.5625V28.4211H34.7188V25.2632H37.875V28.4211H41.0313V31.5789H44.1875V34.7368H41.0313V37.8947H44.1875V41.0526H47.3438V37.8947H50.5V34.7368H53.6563V31.5789H56.8125V34.7368H59.9688V37.8947H63.125V41.0526H66.2813V37.8947H69.4375V34.7368H72.5938V31.5789H75.75V34.7368H78.9063V37.8947H82.0625V34.7368H85.2188V37.8947H88.375V41.0526H85.2188V44.2105H88.375V41.0526H91.5313V37.8947H94.6875V34.7368H97.8438V37.8947H101V56.8421H94.6875V50.5263H91.5313V53.6842H88.375V56.8421H78.9063V53.6842H75.75V56.8421H72.5938V60H66.2813V56.8421H63.125V53.6842H53.6563V56.8421H44.1875V53.6842H41.0313V50.5263H37.875V37.8947H31.5625V41.0526H28.4063V44.2105H25.25V50.5263H18.9375V25.2632H15.7813V31.5789H12.625V37.8947H9.46876V44.2105H6.31251V53.6842H3.15626V60H1.14441e-05V34.7368H3.15626V31.5789H6.31251V25.2632H12.625V22.1053H15.7813V18.9474H18.9375V15.7895H22.0938V18.9474ZM78.9063 44.2105H82.0625V41.0526H78.9063V44.2105ZM72.5938 41.0526H75.75V37.8947H72.5938V41.0526Z" fill="#663291"/>
<path d="M47.3438 37.8947H44.1875V34.7368H47.3438V37.8947Z" fill="#663291"/>
<path d="M66.2813 37.8947H63.125V34.7368H66.2813V37.8947Z" fill="#663291"/>
<path d="M91.5313 37.8947H88.375V34.7368H91.5313V37.8947Z" fill="#663291"/>
<path d="M50.5 34.7368H47.3438V31.5789H50.5V34.7368Z" fill="#663291"/>
<path d="M63.125 34.7368H59.9688V31.5789H63.125V34.7368Z" fill="#663291"/>
<path d="M69.4375 34.7368H66.2813V31.5789H69.4375V34.7368Z" fill="#663291"/>
<path d="M82.0625 34.7368H78.9063V31.5789H82.0625V34.7368Z" fill="#663291"/>
<path d="M88.375 34.7368H85.2188V31.5789H88.375V34.7368Z" fill="#663291"/>
<path d="M94.6875 34.7368H91.5313V31.5789H94.6875V34.7368Z" fill="#663291"/>
<path d="M101 34.7368H97.8438V31.5789H101V34.7368Z" fill="#663291"/>
<path d="M47.3438 31.5789H44.1875V28.4211H47.3438V31.5789Z" fill="#663291"/>
<path d="M53.6563 31.5789H50.5V28.4211H53.6563V31.5789Z" fill="#663291"/>
<path d="M59.9688 31.5789H56.8125V28.4211H59.9688V31.5789Z" fill="#663291"/>
<path d="M66.2813 31.5789H63.125V28.4211H66.2813V31.5789Z" fill="#663291"/>
<path d="M72.5938 31.5789H69.4375V28.4211H72.5938V31.5789Z" fill="#663291"/>
<path d="M78.9063 31.5789H75.75V28.4211H78.9063V31.5789Z" fill="#663291"/>
<path d="M85.2188 31.5789H82.0625V28.4211H85.2188V31.5789Z" fill="#663291"/>
<path d="M91.5313 31.5789H88.375V28.4211H91.5313V31.5789Z" fill="#663291"/>
<path d="M97.8438 31.5789H94.6875V28.4211H97.8438V31.5789Z" fill="#663291"/>
<path d="M44.1875 28.4211H41.0313V25.2632H44.1875V28.4211Z" fill="#663291"/>
<path d="M50.5 28.4211H47.3438V25.2632H50.5V28.4211Z" fill="#663291"/>
<path d="M56.8125 28.4211H53.6563V25.2632H56.8125V28.4211Z" fill="#663291"/>
<path d="M63.125 28.4211H59.9688V25.2632H63.125V28.4211Z" fill="#663291"/>
<path d="M69.4375 28.4211H66.2813V25.2632H69.4375V28.4211Z" fill="#663291"/>
<path d="M75.75 28.4211H72.5938V25.2632H75.75V28.4211Z" fill="#663291"/>
<path d="M82.0625 28.4211H78.9063V25.2632H82.0625V28.4211Z" fill="#663291"/>
<path d="M88.375 28.4211H85.2188V25.2632H88.375V28.4211Z" fill="#663291"/>
<path d="M94.6875 28.4211H91.5313V25.2632H94.6875V28.4211Z" fill="#663291"/>
<path d="M28.4063 25.2632H25.25V22.1053H28.4063V25.2632Z" fill="#663291"/>
<path d="M34.7188 25.2632H31.5625V22.1053H34.7188V25.2632Z" fill="#663291"/>
<path d="M41.0313 25.2632H37.875V22.1053H41.0313V25.2632Z" fill="#663291"/>
<path d="M47.3438 25.2632H44.1875V22.1053H47.3438V25.2632Z" fill="#663291"/>
<path d="M53.6563 25.2632H50.5V22.1053H53.6563V25.2632Z" fill="#663291"/>
<path d="M59.9688 25.2632H56.8125V22.1053H59.9688V25.2632Z" fill="#663291"/>
<path d="M66.2813 25.2632H63.125V22.1053H66.2813V25.2632Z" fill="#663291"/>
<path d="M72.5938 25.2632H69.4375V22.1053H72.5938V25.2632Z" fill="#663291"/>
<path d="M78.9063 25.2632H75.75V22.1053H78.9063V25.2632Z" fill="#663291"/>
<path d="M85.2188 25.2632H82.0625V22.1053H85.2188V25.2632Z" fill="#663291"/>
<path d="M91.5313 25.2632H88.375V22.1053H91.5313V25.2632Z" fill="#663291"/>
<path d="M12.625 22.1053H9.46876V18.9474H12.625V22.1053Z" fill="#663291"/>
<path d="M31.5625 22.1053H28.4063V18.9474H31.5625V22.1053Z" fill="#663291"/>
<path d="M37.875 22.1053H34.7188V18.9474H37.875V22.1053Z" fill="#663291"/>
<path d="M44.1875 22.1053H41.0313V18.9474H44.1875V22.1053Z" fill="#663291"/>
<path d="M50.5 22.1053H47.3438V18.9474H50.5V22.1053Z" fill="#663291"/>
<path d="M56.8125 22.1053H53.6563V18.9474H56.8125V22.1053Z" fill="#663291"/>
<path d="M63.125 22.1053H59.9688V18.9474H63.125V22.1053Z" fill="#663291"/>
<path d="M75.75 22.1053H72.5938V18.9474H75.75V22.1053Z" fill="#663291"/>
<path d="M82.0625 22.1053H78.9063V18.9474H82.0625V22.1053Z" fill="#663291"/>
<path d="M88.375 22.1053H85.2188V18.9474H88.375V22.1053Z" fill="#663291"/>
<path d="M15.7813 18.9474H12.625V15.7895H15.7813V18.9474Z" fill="#663291"/>
<path d="M28.4063 18.9474H25.25V15.7895H28.4063V18.9474Z" fill="#663291"/>
<path d="M34.7188 18.9474H31.5625V15.7895H34.7188V18.9474Z" fill="#663291"/>
<path d="M41.0313 18.9474H37.875V15.7895H41.0313V18.9474Z" fill="#663291"/>
<path d="M47.3438 18.9474H44.1875V15.7895H47.3438V18.9474Z" fill="#663291"/>
<path d="M53.6563 18.9474H50.5V15.7895H53.6563V18.9474Z" fill="#663291"/>
<path d="M59.9688 18.9474H56.8125V15.7895H59.9688V18.9474Z" fill="#663291"/>
<path d="M85.2188 18.9474H82.0625V15.7895H85.2188V18.9474Z" fill="#663291"/>
<path d="M18.9375 15.7895H15.7813V12.6316H18.9375V15.7895Z" fill="#663291"/>
<path d="M25.25 15.7895H22.0938V12.6316H25.25V15.7895Z" fill="#663291"/>
<path d="M31.5625 15.7895H28.4063V12.6316H31.5625V15.7895Z" fill="#663291"/>
<path d="M37.875 15.7895H34.7188V12.6316H37.875V15.7895Z" fill="#663291"/>
<path d="M44.1875 15.7895H41.0313V12.6316H44.1875V15.7895Z" fill="#663291"/>
<path d="M50.5 15.7895H47.3438V12.6316H50.5V15.7895Z" fill="#663291"/>
<path d="M56.8125 15.7895H53.6563V12.6316H56.8125V15.7895Z" fill="#663291"/>
<path d="M22.0938 12.6316H18.9375V9.47368H22.0938V12.6316Z" fill="#663291"/>
<path d="M28.4063 12.6316H25.25V9.47368H28.4063V12.6316Z" fill="#663291"/>
<path d="M34.7188 12.6316H31.5625V9.47368H34.7188V12.6316Z" fill="#663291"/>
<path d="M41.0313 12.6316H37.875V9.47368H41.0313V12.6316Z" fill="#663291"/>
<path d="M47.3438 12.6316H44.1875V9.47368H47.3438V12.6316Z" fill="#663291"/>
<path d="M53.6563 12.6316H50.5V9.47368H53.6563V12.6316Z" fill="#663291"/>
<path d="M18.9375 9.47368H15.7813V6.31579H18.9375V9.47368Z" fill="#663291"/>
<path d="M25.25 9.47368H22.0938V6.31579H25.25V9.47368Z" fill="#663291"/>
<path d="M31.5625 9.47368H28.4063V6.31579H31.5625V9.47368Z" fill="#663291"/>
<path d="M22.0938 6.31579H18.9375V3.15789H22.0938V6.31579Z" fill="#663291"/>
<path d="M28.4063 6.31579H25.25V3.15789H28.4063V6.31579Z" fill="#663291"/>
<path d="M25.25 3.15789H22.0938V0H25.25V3.15789Z" fill="#663291"/>
<path d="M18.9375 50.5263H25.25V44.2105H28.4063V41.0526H31.5625V37.8947H37.875V50.5263H41.0313V53.6842H44.1875V56.8421H53.6563V53.6842H63.125V56.8421H66.2813V60H72.5938V56.8421H75.75V53.6842H78.9063V56.8421H88.375V53.6842H91.5313V50.5263H94.6875V56.8421H101V72.6316H94.6875V69.4737H91.5313V63.1579H85.2188V66.3158H78.9063V69.4737H69.4375V66.3158H63.125V69.4737H53.6563V72.6316H44.1875V69.4737H41.0313V66.3158H34.7188V63.1579H31.5625V56.8421H34.7188V50.5263H31.5625V56.8421H28.4063V60H25.25V63.1579H18.9375V66.3158H15.7813V44.2105H12.625V56.8421H9.46876V63.1579H6.31251V69.4737H3.15626V75.7895H1.14441e-05V60H3.15626V53.6842H6.31251V44.2105H9.46876V37.8947H12.625V31.579H15.7813V25.2632H18.9375V50.5263Z" fill="#6B56A5"/>
<path d="M97.8438 78.9474H85.2188V75.7895H88.375V72.6316H82.0625V75.7895H78.9063V78.9474H72.5938V75.7895H63.125V78.9474H59.9688V75.7895H56.8125V78.9474H41.0313V75.7895H34.7188V72.6316H31.5625V66.3158H28.4063V69.4737H25.25V72.6316H18.9375V75.7895H12.625V66.3158H9.46876V72.6316H6.31251V78.9474H3.15626V82.1053H1.14441e-05V75.7895H3.15626V69.4737H6.31251V63.1579H9.46876V56.8421H12.625V44.2105H15.7813V66.3158H18.9375V63.1579H25.25V60H28.4063V56.8421H31.5625V63.1579H34.7188V66.3158H41.0313V69.4737H44.1875V72.6316H53.6563V69.4737H63.125V66.3158H69.4375V69.4737H78.9063V66.3158H85.2188V63.1579H91.5313V69.4737H94.6875V72.6316H101V82.1053H97.8438V78.9474Z" fill="#C393C2"/>
<path d="M34.7188 56.8421H31.5625V50.5263H34.7188V56.8421Z" fill="#C393C2"/>
<path d="M12.625 75.7895H18.9375V72.6316H25.25V69.4737H28.4063V66.3158H31.5625V72.6316H34.7188V75.7895H41.0313V78.9474H56.8125V75.7895H59.9688V78.9474H63.125V75.7895H72.5938V78.9474H78.9063V75.7895H82.0625V72.6316H88.375V75.7895H85.2188V78.9474H97.8438V82.1053H101V85.2632H1.14441e-05V82.1053H3.15626V78.9474H6.31251V72.6316H9.46876V66.3158H12.625V75.7895Z" fill="white"/>
</svg>
